<svg version="1.1" xmlns="http://www.w3.org/2000/svg" xmlns:xlink="http://www.w3.org/1999/xlink" x="0px" y="0px" viewBox="0 0 339 302" style="enable-background:new 0 0 339 302;" xml:space="preserve" id="el_xbiSP0MHb"><style>
#el_iqaRgSJ8Tt {
	fill: none;
	stroke: #FFFFFF;
	stroke-miterlimit: 10;
}

#el_QalhDEyiCV {
	fill: none;
	stroke: #FFFFFF;
	stroke-miterlimit: 10;
}

#el_vkIFy8y96u {
	fill: none;
	stroke: #FFFFFF;
	stroke-miterlimit: 10;
}

#el_PTWZ9AihSK {
	fill: none;
	stroke: #FFFFFF;
	stroke-miterlimit: 10;
}

#el_eewkMbFBw4 {
	fill: none;
	stroke: #FFFFFF;
	stroke-miterlimit: 10;
}

#el_I0w3qSgs1A {
	fill: none;
	stroke: #FFFFFF;
	stroke-miterlimit: 10;
}

#el_n7dMLv4w7m {
	fill: none;
	stroke: #FFFFFF;
	stroke-miterlimit: 10;
}

#el_MdzSBPaoyE {
	fill: none;
	stroke: #FFFFFF;
	stroke-miterlimit: 10;
}

#el_6zKi52WdQP2 {
	fill: none;
	stroke: #FFFFFF;
	stroke-miterlimit: 10;
}

#el_F5KDaX-v1PE {
	fill: none;
	stroke: #FFFFFF;
	stroke-miterlimit: 10;
}
</style>

<g id="el_s7TFGsq1Bk">
	<title>KeepKey Vector - Blank Screen</title>
	<desc>Created with Sketch.</desc>
	<g id="el_qLOhIRwApB">
	</g>
	<g id="el_wT_Cz0lZUP">
	</g>
</g>
<g id="el_J9YNHxXMW5">
	<path id="el_iqaRgSJ8Tt" d="M292.9,52.7h-17.5c-0.9,0-1.6,0.5-1.6,1.1v4.9c0,0.6,0.7,1.1,1.6,1.1h17.5&#10;&#9;&#9;c0.9,0,1.6-0.5,1.6-1.1v-4.9C294.5,53.2,293.8,52.7,292.9,52.7"/>
</g>
<g id="el_a1_AkqaEt3">
	<path id="el_QalhDEyiCV" d="M314.6,178.9H40c-1.6,0-2.9-1.3-2.9-2.9V62.6c0-1.6,1.3-2.9,2.9-2.9h274.6&#10;&#9;&#9;c1.6,0,2.9,1.3,2.9,2.9V176C317.5,177.6,316.2,178.9,314.6,178.9"/>
	<path id="el_vkIFy8y96u" d="M56.9,87.4h240.9c0.9,0,1.7,0.7,1.7,1.7V147c0,0.9-0.7,1.7-1.7,1.7H56.9&#10;&#9;&#9;c-0.9,0-1.7-0.7-1.7-1.7V89.1C55.3,88.2,56,87.4,56.9,87.4z"/>
</g>
<g id="el_-hqVBUgx4l_an_Z7gVuWwgR"><g id="el_-hqVBUgx4l">
</g></g>
</svg>
